<svg fill="#000000" xmlns="http://www.w3.org/2000/svg"  viewBox="0 0 48 48" width="48px" height="48px"><path d="M36.5,6h-25C8.468,6,6,8.468,6,11.5v25c0,3.032,2.468,5.5,5.5,5.5h25c3.032,0,5.5-2.468,5.5-5.5v-25	C42,8.468,39.532,6,36.5,6z M32.535,24.536l-7.438,7.986C24.813,32.827,24.416,33,24,33s-0.813-0.173-1.098-0.478l-7.475-8.025	C14.521,23.592,14,22.336,14,21s0.521-2.592,1.465-3.536c1.949-1.947,5.121-1.948,7.07,0.001L24,18.93l1.465-1.465	c1.949-1.949,5.121-1.948,7.07-0.001c0,0.001,0,0.001,0,0.001C33.479,18.409,34,19.664,34,21S33.479,23.592,32.535,24.536z"/></svg>